<svg width="319" height="187" viewBox="0 0 319 187" fill="none" xmlns="http://www.w3.org/2000/svg">
<rect width="319" height="187" rx="5" fill="#F5F5F5"/>
<path fill-rule="evenodd" clip-rule="evenodd" d="M159.333 92.9999C159.333 83.7952 166.795 76.3333 175.999 76.3333C185.204 76.3333 192.666 83.7952 192.666 92.9999C192.666 102.205 185.204 109.667 175.999 109.667C166.795 109.667 159.333 102.205 159.333 92.9999Z" fill="#1ABCFE"/>
<path fill-rule="evenodd" clip-rule="evenodd" d="M126 126.333C126 117.129 133.462 109.667 142.667 109.667H159.333V126.333C159.333 135.538 151.871 143 142.667 143C133.462 143 126 135.538 126 126.333Z" fill="#0ACF83"/>
<path fill-rule="evenodd" clip-rule="evenodd" d="M159.333 43V76.3334H175.999C185.204 76.3334 192.666 68.8714 192.666 59.6667C192.666 50.4619 185.204 43 175.999 43H159.333Z" fill="#FF7262"/>
<path fill-rule="evenodd" clip-rule="evenodd" d="M126 59.6667C126 68.8714 133.462 76.3334 142.667 76.3334H159.333V43H142.667C133.462 43 126 50.4619 126 59.6667Z" fill="#F24E1E"/>
<path fill-rule="evenodd" clip-rule="evenodd" d="M126 92.9999C126 102.205 133.462 109.667 142.667 109.667H159.333V76.3333H142.667C133.462 76.3333 126 83.7952 126 92.9999Z" fill="#A259FF"/>
</svg>
