<svg width="319" height="187" viewBox="0 0 319 187" fill="none" xmlns="http://www.w3.org/2000/svg">
<rect width="319" height="187" rx="5" fill="#F5F5F5"/>
<circle cx="160" cy="93" r="50" fill="#FF3366"/>
<path d="M143.426 74.6406C146.878 74.6406 149.676 71.8424 149.676 68.3906C149.676 64.9388 146.878 62.1406 143.426 62.1406C139.974 62.1406 137.176 64.9388 137.176 68.3906C137.176 71.8424 139.974 74.6406 143.426 74.6406Z" fill="white"/>
<path d="M130.368 79.9978L128.192 87.9777H135.335C133.902 93.7999 130.904 106.047 130.368 108.458C129.699 111.471 129.587 120.065 138.627 120.065C144.937 120.065 148.962 115.988 151.207 112.66L149.509 119.451H159.665L164.966 97.9931C165.72 94.423 167.493 87.5312 173.895 87.5312C181.509 87.5312 178.716 96.5475 177.347 100.966C177.291 101.146 177.238 101.318 177.187 101.482C176.161 104.83 175.067 108.737 175.067 111.415C175.067 114.429 176.462 120.065 184.274 120.065C192.087 120.065 195.417 112.327 196.105 108.458L192.143 106.839C191.864 108.904 189.353 113.368 187.009 113.368C183.8 113.368 185.412 107.959 187.132 102.186C187.895 99.6253 188.679 96.9932 189.074 94.7299C190.071 89.0075 189.074 79.2723 179.141 79.2723C172.971 79.2723 168.127 84.7696 165.822 88.586L167.757 79.9978H152.299L150.179 87.9777H157.377C157.377 87.9777 153.105 105.387 152.829 105.932C149.927 111.666 145.539 113.591 142.254 113.368C139.62 113.19 139.929 110.02 140.413 108.458L147.556 79.9978H130.368Z" fill="white"/>
</svg>
