<svg width="319" height="187" viewBox="0 0 319 187" fill="none" xmlns="http://www.w3.org/2000/svg">
<rect width="319" height="187" rx="5" fill="#F5F5F5"/>
<rect x="110" y="43" width="100" height="100" fill="#FF26BE"/>
<rect x="113.571" y="46.5713" width="92.8571" height="92.8571" fill="#2E001F"/>
<path d="M162.045 117.309L149.879 92.99L161.498 68.6443C161.717 68.2761 161.586 68 161.236 68H154.187C153.765 68 153.585 68.2852 153.399 68.5983L145.344 87.0071L137.07 68.5523C136.895 68.1381 136.72 68.046 136.282 68.046H128.752C128.489 68.046 128.227 68.3222 128.489 68.6903L140.091 92.99L127.986 117.355C127.767 117.631 127.811 118 128.248 118H135.472C135.822 118 136.041 117.862 136.26 117.493L144.775 98.4206L153.246 117.447C153.465 117.908 153.684 118 154.165 118H161.783C162.133 118 162.264 117.678 162.045 117.309Z" fill="#FF26BE"/>
<path fill-rule="evenodd" clip-rule="evenodd" d="M181.855 80.6089C171.086 80.6089 164.3 88.9849 164.3 99.7081C164.3 112.226 171.001 118.046 180.501 118C184.178 118 188.115 117.519 191.793 115.678C192.055 115.54 192.143 115.448 192.143 115.172C191.924 113.469 191.924 111.904 191.924 110.661V68.4131C191.924 68.183 191.836 68.0449 191.486 68.0449H184.569C184.35 68.0449 184.131 68.229 184.131 68.5051V80.701C183.256 80.6089 182.774 80.6089 181.855 80.6089ZM181.592 87.4662C182.643 87.4662 183.519 87.6503 184.131 87.9264V110.707C183.3 111.076 182.161 111.214 181.111 111.214C176.164 111.214 172.224 107.808 172.224 99.3399C172.224 91.9304 176.076 87.4662 181.592 87.4662Z" fill="#FF26BE"/>
</svg>
